<mxfile host="app.diagrams.net" modified="2021-10-12T12:16:14.194Z" agent="5.0 (X11)" etag="oL92bJ9V_vmx0pcxk5rF" version="15.5.1" type="github">
  <diagram id="y85TKeP2wBH4dLe60alc" name="Page-1">
    <mxGraphModel dx="2252" dy="1288" grid="1" gridSize="10" guides="1" tooltips="1" connect="1" arrows="1" fold="1" page="1" pageScale="1" pageWidth="850" pageHeight="1100" math="0" shadow="0">
      <root>
        <mxCell id="0" />
        <mxCell id="1" parent="0" />
        <mxCell id="Xjbe4XN_0XujpbxIoSMV-4" value="" style="whiteSpace=wrap;html=1;aspect=fixed;" vertex="1" parent="1">
          <mxGeometry x="-690" y="600" width="1120" height="1120" as="geometry" />
        </mxCell>
        <mxCell id="Xjbe4XN_0XujpbxIoSMV-3" value="" style="whiteSpace=wrap;html=1;fillColor=#dae8fc;strokeColor=#6c8ebf;" vertex="1" parent="1">
          <mxGeometry x="-460" y="600" width="890" height="1120" as="geometry" />
        </mxCell>
        <mxCell id="Xjbe4XN_0XujpbxIoSMV-5" value="&lt;div&gt;&lt;font style=&quot;font-size: 28px&quot;&gt;Responsable &lt;br&gt;&lt;/font&gt;&lt;/div&gt;&lt;div&gt;&lt;font style=&quot;font-size: 28px&quot;&gt;pédagogique&lt;/font&gt;&lt;/div&gt;" style="shape=umlActor;verticalLabelPosition=bottom;verticalAlign=top;html=1;outlineConnect=0;" vertex="1" parent="1">
          <mxGeometry x="-650" y="1020" width="130" height="260" as="geometry" />
        </mxCell>
        <mxCell id="Xjbe4XN_0XujpbxIoSMV-6" value="Demande de compte sur l&#39;application" style="ellipse;whiteSpace=wrap;html=1;fontSize=28;" vertex="1" parent="1">
          <mxGeometry x="-280" y="660" width="330" height="200" as="geometry" />
        </mxCell>
        <mxCell id="Xjbe4XN_0XujpbxIoSMV-7" value="Cas d&#39;utilisation Responsable pédagogique" style="text;html=1;strokeColor=none;fillColor=none;align=center;verticalAlign=middle;whiteSpace=wrap;rounded=0;fontSize=28;" vertex="1" parent="1">
          <mxGeometry x="-280" y="610" width="840" height="30" as="geometry" />
        </mxCell>
        <mxCell id="Xjbe4XN_0XujpbxIoSMV-8" value="&lt;div&gt;Saisie de la (ou les) formation(s)&lt;/div&gt;&lt;div&gt;dont il est responsable&lt;br&gt;&lt;/div&gt;" style="ellipse;whiteSpace=wrap;html=1;fontSize=28;" vertex="1" parent="1">
          <mxGeometry x="-150" y="860" width="330" height="200" as="geometry" />
        </mxCell>
        <mxCell id="Xjbe4XN_0XujpbxIoSMV-9" value="&lt;div&gt;Droit de lecture des&lt;/div&gt;&lt;div&gt;disponibilités &lt;br&gt;&lt;/div&gt;&lt;div&gt;d&#39;intervenants&lt;/div&gt;" style="ellipse;whiteSpace=wrap;html=1;fontSize=28;" vertex="1" parent="1">
          <mxGeometry x="-140" y="1110" width="330" height="200" as="geometry" />
        </mxCell>
        <mxCell id="Xjbe4XN_0XujpbxIoSMV-10" value="&lt;div&gt;Droit d&#39;ecriture (réserver&lt;/div&gt;&lt;div&gt;un créneau chez un &lt;br&gt;&lt;/div&gt;&lt;div&gt;intervenant)&lt;br&gt;&lt;/div&gt;" style="ellipse;whiteSpace=wrap;html=1;fontSize=28;" vertex="1" parent="1">
          <mxGeometry x="-200" y="1350" width="350" height="210" as="geometry" />
        </mxCell>
        <mxCell id="Xjbe4XN_0XujpbxIoSMV-11" value="" style="endArrow=none;html=1;rounded=0;fontSize=28;entryX=0;entryY=0.5;entryDx=0;entryDy=0;exitX=0.5;exitY=0.5;exitDx=0;exitDy=0;exitPerimeter=0;" edge="1" parent="1" source="Xjbe4XN_0XujpbxIoSMV-5" target="Xjbe4XN_0XujpbxIoSMV-6">
          <mxGeometry width="50" height="50" relative="1" as="geometry">
            <mxPoint x="90" y="1210" as="sourcePoint" />
            <mxPoint x="140" y="1160" as="targetPoint" />
          </mxGeometry>
        </mxCell>
        <mxCell id="Xjbe4XN_0XujpbxIoSMV-12" value="" style="endArrow=none;html=1;rounded=0;fontSize=28;entryX=0;entryY=0.5;entryDx=0;entryDy=0;exitX=0.5;exitY=0.5;exitDx=0;exitDy=0;exitPerimeter=0;" edge="1" parent="1" target="Xjbe4XN_0XujpbxIoSMV-8">
          <mxGeometry width="50" height="50" relative="1" as="geometry">
            <mxPoint x="-575" y="1160" as="sourcePoint" />
            <mxPoint x="-269.9999999999998" y="770" as="targetPoint" />
          </mxGeometry>
        </mxCell>
        <mxCell id="Xjbe4XN_0XujpbxIoSMV-13" value="" style="endArrow=none;html=1;rounded=0;fontSize=28;exitX=0.5;exitY=0.5;exitDx=0;exitDy=0;exitPerimeter=0;" edge="1" parent="1" target="Xjbe4XN_0XujpbxIoSMV-9">
          <mxGeometry width="50" height="50" relative="1" as="geometry">
            <mxPoint x="-565" y="1170" as="sourcePoint" />
            <mxPoint x="-140" y="970" as="targetPoint" />
          </mxGeometry>
        </mxCell>
        <mxCell id="Xjbe4XN_0XujpbxIoSMV-14" value="" style="endArrow=none;html=1;rounded=0;fontSize=28;exitX=0.5;exitY=0.5;exitDx=0;exitDy=0;exitPerimeter=0;entryX=0;entryY=0.5;entryDx=0;entryDy=0;" edge="1" parent="1" target="Xjbe4XN_0XujpbxIoSMV-10">
          <mxGeometry width="50" height="50" relative="1" as="geometry">
            <mxPoint x="-555" y="1180" as="sourcePoint" />
            <mxPoint x="-128.9772133898814" y="1208.8829007871268" as="targetPoint" />
          </mxGeometry>
        </mxCell>
      </root>
    </mxGraphModel>
  </diagram>
</mxfile>
